<svg xmlns="http://www.w3.org/2000/svg" xmlns:xlink="http://www.w3.org/1999/xlink" version="1.1" x="0px" y="0px" viewBox="0 0 100 100" style="enable-background:new 0 0 100 100;" xml:space="preserve"><style type="text/css">
	.st0{fill:none;stroke:#000000;stroke-width:2;stroke-miterlimit:10;}
	.st1{fill:none;stroke:#000000;stroke-miterlimit:10;}
</style><g><path d="M76.2,49L70,36.7C67.7,32,62.8,29,57.6,29h-1.1l-1.3-6.5c-0.2-1-0.6-1.5-1-1.5h-6c-0.4,0-0.8,0.6-1,1.5L45.9,29H34.8   c-5.3,0-10.1,3-12.4,7.7L16.2,49c-5.5,0-10,4.5-10,10v2c0,4.4,3.6,8,8,8c0-6.6,5.4-12,12-12s12,5.4,12,12h26c0-6.6,5.4-12,12-12   s12,5.4,12,12c4.8,0,5.7-4.6,5.7-9.4C93.8,49.6,83.8,49,76.2,49z"></path><circle cx="26.2" cy="69" r="10"></circle><circle cx="76.2" cy="69" r="10"></circle></g></svg>