<svg xmlns="http://www.w3.org/2000/svg" xmlns:xlink="http://www.w3.org/1999/xlink" version="1.1" x="0px" y="0px" viewBox="0 0 512 512" enable-background="new 0 0 512 512" xml:space="preserve"><g><path d="M495.9,213.6h-65l-113-106.8c-2.6-2.5-6.1-3.9-9.7-3.9H133.3c-4.9,0-9.4,2.5-11.9,6.6L56,213.6H16.1   c-7.8,0-14.1,6.3-14.1,14.1v120.1c0,7.8,6.3,14.1,14.1,14.1h25c6.4,27,30.6,47.1,59.5,47.1c28.9,0,53.1-20.2,59.5-47.1h191.7   c6.4,27,30.6,47.1,59.5,47.1c28.9,0,53.1-20.2,59.5-47.1h25c7.8,0,14.1-6.3,14.1-14.1V227.7C510,219.9,503.7,213.6,495.9,213.6z    M244.2,131.2h58.4l87.2,82.4H244.2V131.2z M141.1,131.2H216v82.4H89.3L141.1,131.2z M100.6,380.8c-18.2,0-33-14.8-33-33   c0-18.2,14.8-33,33-33c18.2,0,33,14.8,33,32.9c0,0,0,0,0,0.1c0,0,0,0,0,0.1C133.6,366.1,118.8,380.8,100.6,380.8z M411.4,380.8   c-18.2,0-33-14.8-33-32.9c0,0,0,0,0-0.1c0,0,0,0,0-0.1c0-18.2,14.8-32.9,33-32.9c18.2,0,33,14.8,33,33   C444.4,366,429.6,380.8,411.4,380.8z M481.8,333.7h-10.9c-6.4-27-30.6-47.1-59.5-47.1c-28.9,0-53.1,20.1-59.5,47.1H160.1   c-6.4-27-30.6-47.1-59.5-47.1c-28.9,0-53.1,20.1-59.5,47.1H30.2v-91.9h451.6V333.7z"></path><rect x="189.3" y="261.1" width="26.7" height="26.7"></rect><rect x="296" y="261.1" width="26.7" height="26.7"></rect><rect x="242.6" y="261.1" width="26.7" height="26.7"></rect><rect x="216" y="287.7" width="26.7" height="26.7"></rect><rect x="269.3" y="287.7" width="26.7" height="26.7"></rect></g></svg>