<svg xmlns="http://www.w3.org/2000/svg" xmlns:xlink="http://www.w3.org/1999/xlink" version="1.1" x="0px" y="0px" viewBox="0 0 100 100" enable-background="new 0 0 100 100" xml:space="preserve"><g><g><g><rect x="41.907" y="44.016" fill="#000000" width="6.905" height="5.614"></rect></g></g><g><g><polygon fill="#000000" points="34.689,49.574 37.506,44.016 36.263,44.016 33.442,49.63 34.799,49.63    "></polygon></g></g><g><g><path fill="#000000" d="M39.429,55.719c-1.62,0-2.938,1.318-2.938,2.94c0,1.619,1.317,2.939,2.938,2.939     c1.621,0,2.941-1.32,2.941-2.939C42.37,57.037,41.05,55.719,39.429,55.719z M39.429,59.619c-0.53,0-0.961-0.43-0.961-0.96     c0-0.532,0.431-0.962,0.961-0.962c0.531,0,0.962,0.43,0.962,0.962C40.391,59.189,39.96,59.619,39.429,59.619z"></path></g></g><g><g><polygon fill="#000000" points="38.834,44.016 35.988,49.63 40.722,49.63 40.722,44.016    "></polygon></g></g><g><g><polygon fill="#000000" points="65.662,53.625 65.27,50.813 64.158,50.813 64.158,53.625    "></polygon></g></g><g><g><polygon fill="#000000" points="49.999,49.63 58.632,49.63 56.121,44.016 49.999,44.016    "></polygon></g></g><g><g><path fill="#000000" d="M65.829,54.812h-2.855v-3.998H33.032l-0.505,7.253h2.414c0.42-2.109,2.297-3.689,4.491-3.689     c2.193,0,4.07,1.58,4.49,3.689h7.621c0.418-2.109,2.295-3.689,4.491-3.689c2.198,0,4.067,1.58,4.488,3.689h5.762L65.829,54.812z      M47.495,53.636h-1.111c-0.202,0-0.369-0.166-0.369-0.368c0-0.207,0.167-0.374,0.369-0.374h1.111     c0.203,0,0.367,0.167,0.367,0.374C47.862,53.47,47.698,53.636,47.495,53.636z M52.111,53.636h-1.108     c-0.206,0-0.369-0.166-0.369-0.368c0-0.207,0.163-0.374,0.369-0.374h1.108c0.206,0,0.369,0.167,0.369,0.374     C52.48,53.47,52.317,53.636,52.111,53.636z"></path></g></g><g><g><path fill="#000000" d="M56.015,55.719c-1.624,0-2.941,1.318-2.941,2.94c0,1.619,1.317,2.939,2.941,2.939     c1.62,0,2.941-1.32,2.941-2.939C58.956,57.037,57.635,55.719,56.015,55.719z M56.015,59.619c-0.531,0-0.962-0.43-0.962-0.96     c0-0.532,0.431-0.962,0.962-0.962c0.53,0,0.957,0.43,0.957,0.962C56.972,59.189,56.545,59.619,56.015,59.619z"></path></g></g></g></svg>